# xmcd
#
# Track frame offsets:
#	150
#	18239
#	33181
#	51144
#	67385
#	83293
#	102807
#	119942
#	140500
#	156558
#	185933
#
# Disc length: 3078 seconds
#
# Revision: 1
# Processed by: cddbd v1.5.2PL0 Copyright (c) Steve Scherf et al.
# Submitted via: audiograbber 1.83.01
#
DISCID=9d0c040b
DTITLE=Kenny Chesney - KGR13017
DYEAR=1900
DGENRE=Karaoke
TTITLE0=She's Got It All
TTITLE1=How Forever Feels
TTITLE2=You Had Me From Hello
TTITLE3=Don't Happen Twice
TTITLE4=The Good Stuff
TTITLE5=There Goes My Life
TTITLE6=When The Sun Goes Down
TTITLE7=Don't Blink
TTITLE8=Out Last Night
TTITLE9=Ain't Back Yet
TTITLE10=Data Track
EXTD=
EXTT0=
EXTT1=
EXTT2=
EXTT3=
EXTT4=
EXTT5=
EXTT6=
EXTT7=
EXTT8=
EXTT9=
EXTT10=
PLAYORDER=
